<svg xmlns="http://www.w3.org/2000/svg" viewBox="0 0 64 64" role="img" aria-label="Agencja">
  <rect width="64" height="64" rx="14" fill="#f97316" />
  <path d="M17 16.5C17 14.567 18.567 13 20.5 13H44a3 3 0 0 1 3 3v31.5a3 3 0 0 1-3 3H23.5A4.5 4.5 0 0 0 19 55h-2V16.5Z" fill="#fff7ed" />
  <path d="M22 17h19a2 2 0 0 1 2 2v26H23.5a8.28 8.28 0 0 0-1.5.14V17Z" fill="#ffffff" />
  <path d="M23.5 45H47v5H23.5c-2.485 0-4.5 2.015-4.5 4.5h-2c0-5.247 4.253-9.5 9.5-9.5Z" fill="#c2410c" opacity="0.22" />
  <path d="M26.5 23h12" stroke="#7c2d12" stroke-width="3.5" stroke-linecap="round" />
  <path d="M26.5 31h12" stroke="#7c2d12" stroke-width="3.5" stroke-linecap="round" />
  <path d="M26.5 39h8" stroke="#7c2d12" stroke-width="3.5" stroke-linecap="round" />
  <path d="M42 16h2.5a2.5 2.5 0 0 1 2.5 2.5V47h-5V16Z" fill="#1f2937" />
  <circle cx="49.5" cy="14.5" r="5.5" fill="#111827" />
  <path d="M47.2 14.5h4.6" stroke="#ffffff" stroke-width="1.8" stroke-linecap="round" />
  <path d="M49.5 12.2v4.6" stroke="#ffffff" stroke-width="1.8" stroke-linecap="round" />
</svg>